<svg width="27" height="30" viewBox="0 0 27 30" fill="none" xmlns="http://www.w3.org/2000/svg">
<g clip-path="url(#clip0_9_17)">
<path fill-rule="evenodd" clip-rule="evenodd" d="M13.5781 0C9.95813 0 6.95213 2.593 6.33313 5.995H3.17812C1.75312 5.995 0.578125 7.155 0.578125 8.563V27.43C0.578125 28.84 1.75312 30 3.17812 30H23.9781C25.4031 30 26.5781 28.84 26.5781 27.43V8.563C26.5781 7.155 25.4031 5.995 23.9781 5.995H20.8231C20.2041 2.593 17.1971 0 13.5781 0ZM13.5781 1.713C16.2631 1.713 18.4811 3.529 19.0621 5.995H8.09412C8.67513 3.53 10.8931 1.713 13.5781 1.713Z" fill="white"/>
</g>
<defs>
<clipPath id="clip0_9_17">
<rect width="26" height="30" fill="white" transform="translate(0.578125)"/>
</clipPath>
</defs>
</svg>
