<svg width="100" height="100" viewBox="0 0 100 100" fill="none" xmlns="http://www.w3.org/2000/svg">
<circle cx="50" cy="50" r="50" fill="white"/>
<circle cx="50" cy="50" r="45" fill="#5C1FB1"/>
<circle cx="80" cy="90" r="10" fill="#5C1FB1"/>
<path d="M50 17C53.9782 17 57.7936 18.5804 60.6066 21.3934C63.4196 24.2064 65 28.0218 65 32C65 35.9782 63.4196 39.7936 60.6066 42.6066C57.7936 45.4196 53.9782 47 50 47C46.0218 47 42.2064 45.4196 39.3934 42.6066C36.5804 39.7936 35 35.9782 35 32C35 28.0218 36.5804 24.2064 39.3934 21.3934C42.2064 18.5804 46.0218 17 50 17ZM50 54.5C66.575 54.5 80 61.2125 80 69.5V77H20V69.5C20 61.2125 33.425 54.5 50 54.5Z" fill="white"/>
<path d="M75.2 86.1111H77L78.2 85H81.8L83 86.1111H84.8C85.1183 86.1111 85.4235 86.2282 85.6485 86.4365C85.8736 86.6449 86 86.9275 86 87.2222V93.8889C86 94.1836 85.8736 94.4662 85.6485 94.6746C85.4235 94.8829 85.1183 95 84.8 95H75.2C74.8817 95 74.5765 94.8829 74.3515 94.6746C74.1264 94.4662 74 94.1836 74 93.8889V87.2222C74 86.9275 74.1264 86.6449 74.3515 86.4365C74.5765 86.2282 74.8817 86.1111 75.2 86.1111ZM80 87.7778C79.2044 87.7778 78.4413 88.0704 77.8787 88.5914C77.3161 89.1123 77 89.8188 77 90.5556C77 91.2923 77.3161 91.9988 77.8787 92.5197C78.4413 93.0407 79.2044 93.3333 80 93.3333C80.7956 93.3333 81.5587 93.0407 82.1213 92.5197C82.6839 91.9988 83 91.2923 83 90.5556C83 89.8188 82.6839 89.1123 82.1213 88.5914C81.5587 88.0704 80.7956 87.7778 80 87.7778ZM80 88.8889C80.4774 88.8889 80.9352 89.0645 81.2728 89.377C81.6104 89.6896 81.8 90.1135 81.8 90.5556C81.8 90.9976 81.6104 91.4215 81.2728 91.7341C80.9352 92.0466 80.4774 92.2222 80 92.2222C79.5226 92.2222 79.0648 92.0466 78.7272 91.7341C78.3896 91.4215 78.2 90.9976 78.2 90.5556C78.2 90.1135 78.3896 89.6896 78.7272 89.377C79.0648 89.0645 79.5226 88.8889 80 88.8889Z" fill="white"/>
</svg>
