<svg width="40" height="40" viewBox="0 0 40 40" fill="none" xmlns="http://www.w3.org/2000/svg">
<path d="M4 8H0V36C0 37.0609 0.421427 38.0783 1.17157 38.8284C1.92172 39.5786 2.93913 40 4 40H32V36H4V8ZM36 0C37.0609 0 38.0783 0.421427 38.8284 1.17157C39.5786 1.92172 40 2.93913 40 4V28C40 29.0609 39.5786 30.0783 38.8284 30.8284C38.0783 31.5786 37.0609 32 36 32H12C10.9391 32 9.92172 31.5786 9.17157 30.8284C8.42143 30.0783 8 29.0609 8 28V4C8 2.93913 8.42143 1.92172 9.17157 1.17157C9.92172 0.421427 10.9391 0 12 0H36ZM30 10C30 8.4087 29.3679 6.88258 28.2426 5.75736C27.1174 4.63214 25.5913 4 24 4C22.4087 4 20.8826 4.63214 19.7574 5.75736C18.6321 6.88258 18 8.4087 18 10C18 11.5913 18.6321 13.1174 19.7574 14.2426C20.8826 15.3679 22.4087 16 24 16C25.5913 16 27.1174 15.3679 28.2426 14.2426C29.3679 13.1174 30 11.5913 30 10ZM12 26V28H36V26C36 22 28 19.8 24 19.8C20 19.8 12 22 12 26Z" fill="white"/>
</svg>
