<svg width="128" height="61" viewBox="0 0 128 61" fill="none" xmlns="http://www.w3.org/2000/svg">
<path d="M55.0358 38.3864H53.5843L53.25 39.4071H52.3564L53.8079 35.0465H54.8122L56.2636 39.4071H55.3708L55.0358 38.3864ZM54.8129 37.644L54.3658 36.2526L53.8085 37.6445L54.8129 37.644ZM60.6179 35.0465V39.4071H59.9479L57.6036 36.6238V39.3142H56.7107V34.9536H57.2686L59.6129 37.7369V34.9536H60.6173L60.6179 35.0465ZM66.3109 37.2728C66.3109 38.5723 65.3066 39.4071 63.7437 39.4071H61.8458V35.1394H63.7437C65.3066 35.1394 66.3109 35.9738 66.3109 37.2728ZM62.8508 38.6647H63.7437C64.748 38.6647 65.3066 38.1081 65.3066 37.2733C65.3066 36.4379 64.6366 35.8813 63.7437 35.8813H62.8508V38.6647ZM66.423 22.6136C66.423 26.3247 63.2972 28.8298 58.6086 28.8298H52.8029V16.3969H58.6086C63.2972 16.3969 66.423 18.9019 66.423 22.6136ZM55.7057 26.6959H58.6086C61.6223 26.6959 63.5201 25.1187 63.5201 22.6136C63.5201 20.2009 61.5115 18.5312 58.6086 18.5312H55.7057V26.6959ZM79.8189 28.8298H76.6931L73.7909 24.6545H71.8931V28.8298H69.2138V16.2121H72.0045C72.8974 16.2121 73.6788 16.2121 74.5724 16.3045C76.6931 16.5833 78.4796 17.6035 79.1489 19.0883C79.9303 20.851 79.0375 22.8924 77.0281 23.9131C76.9167 24.0055 76.8046 24.0055 76.6931 24.0985L79.8189 28.8309V28.8298ZM76.4702 19.8297C76.1352 18.9949 75.0188 18.6237 74.1253 18.4383C73.4559 18.3454 72.7859 18.3454 72.0045 18.3454V22.5207C73.3438 22.6136 74.5724 22.5207 75.4653 22.1494C76.3582 21.6858 76.8046 20.6646 76.4702 19.8297ZM82.6097 28.6444V16.1191H85.4004V28.7368H82.6097V28.6444ZM100.248 16.1186V28.7374H98.2391L90.8711 20.7575V28.6444H88.1918V16.1191H89.9776L97.4576 24.1909V16.1186H100.248ZM120.008 27.6237C118.333 28.5515 116.547 29.0157 114.761 29.0157C113.979 29.0157 113.198 28.9227 112.416 28.7374C111.411 28.4586 110.63 27.9949 109.849 27.5308C108.404 26.608 107.06 25.5836 105.83 24.4692L105.718 24.6545V28.7374H102.928V16.1191H105.718V21.2222L110.742 16.1191H114.203L107.839 22.6141L108.174 22.8919C109.291 24.0055 110.519 24.9338 111.97 25.8616C112.528 26.2323 113.086 26.5106 113.756 26.6965C115.207 27.1606 116.994 26.7894 118.668 25.8616L120.008 27.6237ZM84.619 40.8915C83.2796 43.1188 80.4889 44.6031 77.251 44.6031C72.6745 44.6031 68.9902 41.541 68.9902 37.7369V37.1803C68.9902 33.3763 72.6745 30.3147 77.251 30.3147C80.3768 30.3147 83.1682 31.799 84.619 33.9328L82.1632 35.1389C81.2703 33.6546 79.3725 32.7268 77.251 32.7268C74.2374 32.7268 71.781 34.7682 71.781 37.2733V37.8298C71.781 40.3349 74.2374 42.3764 77.251 42.3764C78.2707 42.374 79.2697 42.1387 80.1369 41.6964C81.0041 41.2542 81.7055 40.6224 82.1632 39.8713L84.619 40.8915ZM98.9084 42.2834V44.6031H86.7404V30.5929H89.5312V42.2829L98.9084 42.2834Z" fill="white"/>
<path d="M101.436 30.9719V36.3532C101.436 37.9305 100.32 40.2502 97.082 40.2502C93.8447 40.2502 92.7283 37.9305 92.7283 36.3532V30.9719H95.5191V36.3532C95.5191 36.3532 95.5191 36.8169 95.7426 37.281C95.9655 37.7452 96.4126 37.9305 96.9705 37.9305C97.6405 37.9305 97.9755 37.7452 98.1984 37.281C98.4219 36.8169 98.4219 36.3532 98.4219 36.3532V30.9719H101.436ZM113.939 41.0851C113.939 42.1053 113.492 43.0336 112.711 43.6831C111.706 44.4255 110.255 44.8892 108.581 44.8892H103.557V30.9719H107.352C109.027 30.9719 110.479 31.4355 111.483 32.2709C112.376 33.0133 112.934 34.0335 112.823 35.2396C112.823 36.3532 112.488 37.281 111.706 38.0235L112.711 38.58C113.604 39.2295 113.939 40.1573 113.939 41.0851ZM106.348 33.384V37.1881H107.576C108.357 37.1881 109.027 37.0027 109.474 36.6315C109.92 36.3532 110.031 35.8891 110.031 35.2396C110.031 34.683 109.809 34.2194 109.474 33.9406C109.027 33.5699 108.246 33.384 107.352 33.384H106.348ZM111.148 41.0851C111.148 40.7139 111.036 40.4356 110.813 40.2502C110.366 39.879 109.362 39.6007 108.357 39.6007H106.348V42.477H108.469C109.474 42.477 110.255 42.2911 110.701 41.9199C111.036 41.8275 111.148 41.4563 111.148 41.0851ZM126.777 41.4563C126.33 43.2189 124.321 44.9816 120.86 44.9816C119.409 44.9816 117.958 44.5179 116.953 43.6831C116.171 43.1265 115.614 42.2911 115.39 41.5492C116.284 41.2704 117.065 40.9922 117.958 40.7139C117.958 40.8068 117.958 40.8068 118.069 40.8997V41.0851C118.069 41.178 118.181 41.178 118.181 41.2704C118.628 42.1058 119.744 42.5694 120.749 42.5694C122.87 42.5694 123.652 41.5492 123.763 40.9921C123.874 40.5285 123.986 39.5073 121.419 39.0436L119.409 38.673C116.73 38.2088 115.279 36.9103 115.279 34.9613C115.279 32.4562 118.069 30.9714 120.749 30.9714C123.428 30.9714 125.549 32.2709 126.107 34.1265C125.214 34.4977 124.433 34.776 123.539 35.1467C123.539 34.8689 123.428 34.683 123.317 34.4977C123.317 34.4047 123.204 34.4047 123.204 34.3118C122.758 33.5694 121.754 33.384 120.86 33.384C119.632 33.384 118.293 34.0335 118.293 35.0542C118.293 35.4255 118.293 36.0744 120.191 36.4457L122.312 36.8169C125.549 37.374 127.224 39.1366 126.777 41.4563ZM127 26.1466C126.554 27.9097 124.544 29.6729 121.084 29.6729C119.632 29.6729 118.181 29.2087 117.176 28.3739C116.395 27.8173 115.837 26.982 115.614 26.2401C116.506 25.9612 117.288 25.683 118.181 25.4047C118.181 25.4976 118.181 25.4976 118.293 25.5906V25.7759C118.293 25.8688 118.404 25.8688 118.404 25.9612C118.851 26.7966 119.967 27.2602 120.972 27.2602C123.093 27.2602 123.874 26.24 123.987 25.683C124.098 25.2193 124.209 24.1986 121.642 23.7345L119.632 23.3638C116.953 22.8996 115.502 21.6011 115.502 19.6521C115.502 17.147 118.293 15.6622 120.972 15.6622C123.652 15.6622 125.772 16.9617 126.331 18.8173C125.437 19.1885 124.656 19.4668 123.763 19.8375C123.763 19.5597 123.652 19.3738 123.539 19.1885C123.539 19.0955 123.428 19.0955 123.428 19.0026C122.982 18.2602 121.977 18.0748 121.084 18.0748C119.856 18.0748 118.516 18.7243 118.516 19.745C118.516 20.1163 118.516 20.7652 120.414 21.137L122.535 21.5077C125.772 22.1572 127.447 23.8269 127 26.1466ZM33.3882 27.5391C33.6256 27.5416 33.8613 27.505 34.0813 27.4313C34.3012 27.3576 34.501 27.2483 34.6689 27.1099C34.8368 26.9715 34.9694 26.8068 35.0588 26.6255C35.1482 26.4441 35.1927 26.2499 35.1895 26.0542V22.9925C35.1927 22.7968 35.1482 22.6026 35.0588 22.4213C34.9694 22.2399 34.8368 22.0752 34.6689 21.9368C34.501 21.7984 34.3012 21.6891 34.0813 21.6154C33.8613 21.5417 33.6256 21.5051 33.3882 21.5077H29.6735C29.4361 21.5052 29.2005 21.5419 28.9806 21.6156C28.7607 21.6893 28.561 21.7986 28.3932 21.937C28.2253 22.0754 28.0928 22.2401 28.0035 22.4214C27.9141 22.6027 27.8697 22.7969 27.8728 22.9925V26.0542C27.8697 26.2499 27.9141 26.4441 28.0035 26.6255C28.0929 26.8068 28.2255 26.9715 28.3934 27.1099C28.5613 27.2483 28.7611 27.3576 28.9811 27.4313C29.201 27.505 29.4367 27.5416 29.6741 27.5391H33.3882ZM31.4748 40.5285C29.3365 40.5285 27.5352 39.0436 27.5352 37.281C27.5352 35.5184 29.3365 34.0335 31.4748 34.0335C33.6131 34.0335 35.4144 35.5184 35.4144 37.281C35.4144 39.0436 33.6131 40.5285 31.4748 40.5285ZM13.6909 34.3118C13.7437 34.2267 13.8244 34.1556 13.9238 34.1065C14.0233 34.0574 14.1374 34.0323 14.2533 34.0341H17.9681C18.1929 34.0341 18.4178 34.1265 18.5305 34.3118L20.3318 37.0027C20.4439 37.1881 20.4439 37.374 20.3318 37.5593L18.5305 40.2502C18.4777 40.3353 18.397 40.4065 18.2976 40.4556C18.1982 40.5047 18.084 40.5298 17.9681 40.528H14.2533C14.1374 40.5298 14.0233 40.5047 13.9238 40.4556C13.8244 40.4065 13.7437 40.3353 13.6909 40.2502L11.8896 37.5593C11.8342 37.4737 11.8052 37.3781 11.8052 37.281C11.8052 37.184 11.8342 37.0884 11.8896 37.0027L13.6909 34.3118Z" fill="white"/>
<path d="M101.436 30.9719V36.3532C101.436 37.9305 100.32 40.2502 97.082 40.2502C93.8447 40.2502 92.7283 37.9305 92.7283 36.3532V30.9719H95.5191V36.3532C95.5191 36.3532 95.5191 36.8169 95.7426 37.281C95.9655 37.7452 96.4126 37.9305 96.9705 37.9305C97.6405 37.9305 97.9755 37.7452 98.1984 37.281C98.4219 36.8169 98.4219 36.3532 98.4219 36.3532V30.9719H101.436ZM113.939 41.0851C113.939 42.1053 113.492 43.0336 112.711 43.6831C111.706 44.4255 110.255 44.8892 108.581 44.8892H103.557V30.9719H107.352C109.027 30.9719 110.479 31.4355 111.483 32.2709C112.376 33.0133 112.934 34.0335 112.823 35.2396C112.823 36.3532 112.488 37.281 111.706 38.0235L112.711 38.58C113.604 39.2295 113.939 40.1573 113.939 41.0851ZM106.348 33.384V37.1881H107.576C108.357 37.1881 109.027 37.0027 109.474 36.6315C109.92 36.3532 110.031 35.8891 110.031 35.2396C110.031 34.683 109.809 34.2194 109.474 33.9406C109.027 33.5699 108.246 33.384 107.352 33.384H106.348ZM111.148 41.0851C111.148 40.7139 111.036 40.4356 110.813 40.2502C110.366 39.879 109.362 39.6007 108.357 39.6007H106.348V42.477H108.469C109.474 42.477 110.255 42.2911 110.701 41.9199C111.036 41.8275 111.148 41.4563 111.148 41.0851ZM126.777 41.4563C126.33 43.2189 124.321 44.9816 120.86 44.9816C119.409 44.9816 117.958 44.5179 116.953 43.6831C116.171 43.1265 115.614 42.2911 115.39 41.5492C116.284 41.2704 117.065 40.9922 117.958 40.7139C117.958 40.8068 117.958 40.8068 118.069 40.8997V41.0851C118.069 41.178 118.181 41.178 118.181 41.2704C118.628 42.1058 119.744 42.5694 120.749 42.5694C122.87 42.5694 123.652 41.5492 123.763 40.9921C123.874 40.5285 123.986 39.5073 121.419 39.0436L119.409 38.673C116.73 38.2088 115.279 36.9103 115.279 34.9613C115.279 32.4562 118.069 30.9714 120.749 30.9714C123.428 30.9714 125.549 32.2709 126.107 34.1265C125.214 34.4977 124.433 34.776 123.539 35.1467C123.539 34.8689 123.428 34.683 123.317 34.4977C123.317 34.4047 123.204 34.4047 123.204 34.3118C122.758 33.5694 121.754 33.384 120.86 33.384C119.632 33.384 118.293 34.0335 118.293 35.0542C118.293 35.4255 118.293 36.0744 120.191 36.4457L122.312 36.8169C125.549 37.374 127.224 39.1366 126.777 41.4563ZM127 26.1466C126.554 27.9097 124.544 29.6729 121.084 29.6729C119.632 29.6729 118.181 29.2087 117.176 28.3739C116.395 27.8173 115.837 26.982 115.614 26.2401C116.506 25.9612 117.288 25.683 118.181 25.4047C118.181 25.4976 118.181 25.4976 118.293 25.5906V25.7759C118.293 25.8688 118.404 25.8688 118.404 25.9612C118.851 26.7966 119.967 27.2602 120.972 27.2602C123.093 27.2602 123.874 26.24 123.987 25.683C124.098 25.2193 124.209 24.1986 121.642 23.7345L119.632 23.3638C116.953 22.8996 115.502 21.6011 115.502 19.6521C115.502 17.147 118.293 15.6622 120.972 15.6622C123.652 15.6622 125.772 16.9617 126.331 18.8173C125.437 19.1885 124.656 19.4668 123.763 19.8375C123.763 19.5597 123.652 19.3738 123.539 19.1885C123.539 19.0955 123.428 19.0955 123.428 19.0026C122.982 18.2602 121.977 18.0748 121.084 18.0748C119.856 18.0748 118.516 18.7243 118.516 19.745C118.516 20.1163 118.516 20.7652 120.414 21.137L122.535 21.5077C125.772 22.1572 127.447 23.8269 127 26.1466ZM33.3882 27.5391C33.6256 27.5416 33.8613 27.505 34.0813 27.4313C34.3012 27.3576 34.501 27.2483 34.6689 27.1099C34.8368 26.9715 34.9694 26.8068 35.0588 26.6255C35.1482 26.4441 35.1927 26.2499 35.1895 26.0542V22.9925C35.1927 22.7968 35.1482 22.6026 35.0588 22.4213C34.9694 22.2399 34.8368 22.0752 34.6689 21.9368C34.501 21.7984 34.3012 21.6891 34.0813 21.6154C33.8613 21.5417 33.6256 21.5051 33.3882 21.5077H29.6735C29.4361 21.5052 29.2005 21.5419 28.9806 21.6156C28.7607 21.6893 28.561 21.7986 28.3932 21.937C28.2253 22.0754 28.0928 22.2401 28.0035 22.4214C27.9141 22.6027 27.8697 22.7969 27.8728 22.9925V26.0542C27.8697 26.2499 27.9141 26.4441 28.0035 26.6255C28.0929 26.8068 28.2255 26.9715 28.3934 27.1099C28.5613 27.2483 28.7611 27.3576 28.9811 27.4313C29.201 27.505 29.4367 27.5416 29.6741 27.5391H33.3882ZM31.4748 40.5285C29.3365 40.5285 27.5352 39.0436 27.5352 37.281C27.5352 35.5184 29.3365 34.0335 31.4748 34.0335C33.6131 34.0335 35.4144 35.5184 35.4144 37.281C35.4144 39.0436 33.6131 40.5285 31.4748 40.5285ZM13.6909 34.3118C13.7437 34.2267 13.8244 34.1556 13.9238 34.1065C14.0233 34.0574 14.1374 34.0323 14.2533 34.0341H17.9681C18.1929 34.0341 18.4178 34.1265 18.5305 34.3118L20.3318 37.0027C20.4439 37.1881 20.4439 37.374 20.3318 37.5593L18.5305 40.2502C18.4777 40.3353 18.397 40.4065 18.2976 40.4556C18.1982 40.5047 18.084 40.5298 17.9681 40.528H14.2533C14.1374 40.5298 14.0233 40.5047 13.9238 40.4556C13.8244 40.4065 13.7437 40.3353 13.6909 40.2502L11.8896 37.5593C11.8342 37.4737 11.8052 37.3781 11.8052 37.281C11.8052 37.184 11.8342 37.0884 11.8896 37.0027L13.6909 34.3118Z" fill="white"/>
<path d="M15.9746 27.3394C13.8363 27.3394 12.035 25.8545 12.035 24.0919C12.035 22.3292 13.8363 20.8444 15.9746 20.8444C18.1129 20.8444 19.9142 22.3292 19.9142 24.0919C19.9142 25.8545 18.1129 27.3394 15.9746 27.3394Z" fill="white"/>
<path fill-rule="evenodd" clip-rule="evenodd" d="M47.949 30.5C47.949 41.4144 37.2149 50.2628 23.9745 50.2628C10.7341 50.2628 0 41.4144 0 30.5C0 19.5856 10.7341 10.7372 23.9745 10.7372C37.2149 10.7372 47.949 19.5856 47.949 30.5ZM20.8228 19.0878C21.1604 18.7166 21.8356 18.7166 22.2859 19.0878C22.6241 19.459 22.6241 20.0156 22.3987 20.2939L21.0483 21.4075C21.7235 22.2424 22.0611 23.1702 22.0611 24.1903C22.0611 26.8813 19.3591 29.1081 16.0953 29.1081C12.8315 29.1081 10.1302 26.8813 10.1302 24.1909C10.1302 21.4999 12.8315 19.2732 16.0953 19.2732C17.3336 19.2732 18.4591 19.6444 19.4725 20.2009L20.8228 19.0878ZM29.4899 19.2732H33.204C33.7368 19.2713 34.2648 19.3565 34.7574 19.5237C35.2501 19.6909 35.6977 19.9369 36.0744 20.2474C36.4512 20.558 36.7496 20.927 36.9524 21.3331C37.1553 21.7392 37.2586 22.1744 37.2564 22.6136V25.6752C37.2586 26.1144 37.1553 26.5496 36.9524 26.9557C36.7496 27.3618 36.4512 27.7308 36.0744 28.0414C35.6977 28.3519 35.2501 28.5979 34.7574 28.7651C34.2648 28.9323 33.7368 29.0175 33.204 29.0157H29.4899C28.9571 29.0175 28.4292 28.9323 27.9365 28.7651C27.4439 28.5979 26.9963 28.3519 26.6195 28.0414C26.2428 27.7308 25.9444 27.3618 25.7415 26.9557C25.5386 26.5496 25.4354 26.1144 25.4376 25.6752V22.6136C25.4354 22.1744 25.5386 21.7392 25.7415 21.3331C25.9444 20.927 26.2428 20.558 26.6195 20.2474C26.9963 19.9369 27.4439 19.6909 27.9365 19.5237C28.4292 19.3565 28.9571 19.2713 29.4899 19.2732ZM38.9443 36.0667H37.3685C36.9188 33.6546 34.3295 31.799 31.2906 31.799C30.4915 31.7962 29.6997 31.924 28.9608 32.1748C28.2218 32.4256 27.5505 32.7945 26.9854 33.2603C26.4204 33.7261 25.9728 34.2795 25.6686 34.8886C25.3643 35.4977 25.2094 36.1504 25.2127 36.8091C25.2127 39.593 27.9141 41.9122 31.2906 41.9122C34.3295 41.9122 36.806 40.1496 37.3685 37.7369H38.9443C39.5074 37.7369 39.9577 37.3657 39.9577 36.9021C39.9577 36.4379 39.5074 36.0667 38.9443 36.0667ZM14.1819 41.7274H17.8966C18.9094 41.7274 19.8101 41.3562 20.3725 40.6137L22.1738 37.9233C22.3958 37.5641 22.5115 37.1666 22.5115 36.7635C22.5115 36.3603 22.3958 35.9628 22.1738 35.6036L20.3725 32.9127C19.8101 32.2637 18.9094 31.7995 17.8966 31.7995H14.1819C13.1691 31.7995 12.1557 32.1708 11.706 32.9127L9.9047 35.6036C9.6827 35.9628 9.56697 36.3603 9.56697 36.7635C9.56697 37.1666 9.6827 37.5641 9.9047 37.9233L11.706 40.6137C12.2685 41.2632 13.1691 41.7274 14.1819 41.7274Z" fill="white"/>
<path d="M29.5454 25.4419V24.8364L31.0635 22.4447H31.5855V23.2828H31.2765L30.3195 24.7973V24.8257H32.4768V25.4419H29.5454ZM31.2907 26.0811V25.2572L31.305 24.9891V22.4447H32.0258V26.0811H31.2907Z" fill="black"/>
<path d="M16.8254 22.7958C16.8006 22.7094 16.7656 22.6331 16.7207 22.5668C16.6757 22.4993 16.6206 22.4425 16.5555 22.3963C16.4916 22.349 16.4182 22.3129 16.3354 22.288C16.2537 22.2632 16.1631 22.2507 16.0637 22.2507C15.8779 22.2507 15.7145 22.2969 15.5736 22.3892C15.434 22.4816 15.3251 22.6159 15.2469 22.7923C15.1688 22.9675 15.1297 23.1817 15.1297 23.435C15.1297 23.6884 15.1682 23.9038 15.2452 24.0813C15.3221 24.2589 15.431 24.3944 15.5719 24.488C15.7127 24.5803 15.879 24.6264 16.0708 24.6264C16.2448 24.6264 16.3934 24.5957 16.5165 24.5341C16.6408 24.4714 16.7355 24.3832 16.8006 24.2696C16.8668 24.1559 16.9 24.0216 16.9 23.8665L17.0562 23.8896H16.1187V23.3108H17.6404V23.7688C17.6404 24.0885 17.5729 24.3631 17.438 24.5927C17.303 24.8212 17.1172 24.9975 16.8805 25.1218C16.6437 25.2449 16.3726 25.3065 16.0672 25.3065C15.7263 25.3065 15.4269 25.2313 15.1688 25.081C14.9108 24.9295 14.7095 24.7146 14.5651 24.4365C14.4219 24.1571 14.3503 23.8257 14.3503 23.4421C14.3503 23.1474 14.3929 22.8846 14.4781 22.6538C14.5645 22.4218 14.6853 22.2253 14.8403 22.0643C14.9954 21.9033 15.1759 21.7808 15.3819 21.6968C15.5878 21.6127 15.811 21.5707 16.0513 21.5707C16.2572 21.5707 16.449 21.6009 16.6266 21.6612C16.8041 21.7204 16.9615 21.8045 17.0989 21.9134C17.2373 22.0223 17.3504 22.1519 17.438 22.3022C17.5256 22.4514 17.5818 22.6159 17.6067 22.7958H16.8254Z" fill="black"/>
<path d="M31.8254 35.985C31.8006 35.8986 31.7656 35.8222 31.7207 35.7559C31.6757 35.6885 31.6206 35.6316 31.5555 35.5855C31.4916 35.5381 31.4182 35.502 31.3354 35.4772C31.2537 35.4523 31.1631 35.4399 31.0637 35.4399C30.8779 35.4399 30.7145 35.4861 30.5736 35.5784C30.434 35.6707 30.3251 35.8051 30.2469 35.9814C30.1688 36.1566 30.1297 36.3709 30.1297 36.6242C30.1297 36.8775 30.1682 37.0929 30.2452 37.2705C30.3221 37.4481 30.431 37.5836 30.5719 37.6771C30.7127 37.7694 30.879 37.8156 31.0708 37.8156C31.2448 37.8156 31.3934 37.7848 31.5165 37.7233C31.6408 37.6605 31.7355 37.5723 31.8006 37.4587C31.8668 37.3451 31.9 37.2107 31.9 37.0557L32.0562 37.0787H31.1187V36.4999H32.6404V36.958C32.6404 37.2776 32.5729 37.5522 32.438 37.7819C32.303 38.0103 32.1172 38.1867 31.8805 38.311C31.6437 38.4341 31.3726 38.4956 31.0672 38.4956C30.7263 38.4956 30.4269 38.4205 30.1688 38.2701C29.9108 38.1186 29.7095 37.9038 29.5651 37.6256C29.4219 37.3463 29.3503 37.0148 29.3503 36.6313C29.3503 36.3365 29.3929 36.0738 29.4781 35.8429C29.5645 35.6109 29.6853 35.4144 29.8403 35.2535C29.9954 35.0925 30.1759 34.97 30.3819 34.8859C30.5878 34.8019 30.811 34.7598 31.0513 34.7598C31.2572 34.7598 31.449 34.79 31.6266 34.8504C31.8041 34.9096 31.9615 34.9936 32.0989 35.1025C32.2373 35.2114 32.3504 35.341 32.438 35.4914C32.5256 35.6405 32.5818 35.8051 32.6067 35.985H31.8254Z" fill="black"/>
<path d="M14.5454 37.8067V37.2012L16.0635 34.8096H16.5855V35.6476H16.2765L15.3195 37.1622V37.1906H17.4768V37.8067H14.5454ZM16.2907 38.4459V37.6221L16.305 37.3539V34.8096H17.0258V38.4459H16.2907Z" fill="black"/>
</svg>
