<svg width="145" height="56" viewBox="0 0 145 56" fill="none" xmlns="http://www.w3.org/2000/svg">
<g clip-path="url(#clip0_5_363)">
<path d="M62.8362 39.2825H61.179L60.7973 40.6963H59.7771L61.4342 34.6566H62.5809L64.2381 40.6963H63.2186L62.8362 39.2825ZM62.5817 38.2542L62.0712 36.327L61.435 38.2549L62.5817 38.2542ZM69.2095 34.6566V40.6963H68.4445L65.768 36.8412V40.5675H64.7485V34.5279H65.3855L68.0621 38.3829V34.5279H69.2088L69.2095 34.6566ZM75.7093 37.74C75.7093 39.54 74.5627 40.6963 72.7783 40.6963H70.6114V34.7853H72.7783C74.5627 34.7853 75.7093 35.9409 75.7093 37.74ZM71.7588 39.668H72.7783C73.925 39.668 74.5627 38.8971 74.5627 37.7408C74.5627 36.5837 73.7977 35.8129 72.7783 35.8129H71.7588V39.668ZM75.8373 17.4363C75.8373 22.5765 72.2685 26.0461 66.9154 26.0461H60.2868V8.82586H66.9154C72.2685 8.82586 75.8373 12.2955 75.8373 17.4363ZM63.6011 23.0906H66.9154C70.3562 23.0906 72.523 20.906 72.523 17.4363C72.523 14.0947 70.2297 11.7821 66.9154 11.7821H63.6011V23.0906ZM91.1319 26.0461H87.5631L84.2495 20.2631H82.0827V26.0461H79.0236V8.56989H82.2099C83.2294 8.56989 84.1216 8.56989 85.1417 8.69788C87.5631 9.08405 89.6027 10.4971 90.3669 12.5537C91.2591 14.995 90.2397 17.8225 87.9456 19.2363C87.8183 19.3643 87.6903 19.3643 87.5631 19.493L91.1319 26.0476V26.0461ZM87.3086 13.5805C86.9261 12.4242 85.6515 11.9101 84.6313 11.6534C83.8671 11.5246 83.1021 11.5246 82.2099 11.5246V17.3076C83.7391 17.4363 85.1417 17.3076 86.1612 16.7935C87.1806 16.1513 87.6903 14.7368 87.3086 13.5805ZM94.3182 25.7894V8.44117H97.5045V25.9174H94.3182V25.7894ZM114.457 8.44043V25.9181H112.163L103.751 14.8656V25.7894H100.692V8.44117H102.73L111.271 19.621V8.44043H114.457ZM137.017 24.3756C135.105 25.6607 133.066 26.3035 131.026 26.3035C130.134 26.3035 129.242 26.1748 128.35 25.9181C127.202 25.5319 126.31 24.8898 125.418 24.2469C123.769 22.9688 122.233 21.55 120.829 20.0064L120.702 20.2631V25.9181H117.516V8.44117H120.702V15.5092L126.438 8.44117H130.389L123.124 17.4371L123.506 17.8218C124.781 19.3643 126.183 20.65 127.84 21.935C128.477 22.4485 129.114 22.8339 129.879 23.0913C131.536 23.7342 133.575 23.2201 135.487 21.935L137.017 24.3756ZM96.6123 42.7522C95.0831 45.8371 91.8968 47.893 88.2001 47.893C82.9749 47.893 78.7684 43.6518 78.7684 38.3829V37.6121C78.7684 32.3432 82.9749 28.1027 88.2001 28.1027C91.7688 28.1027 94.9559 30.1586 96.6123 33.1141L93.8085 34.7846C92.789 32.7287 90.6221 31.4436 88.2001 31.4436C84.7593 31.4436 81.9547 34.2711 81.9547 37.7408V38.5117C81.9547 41.9813 84.7593 44.8088 88.2001 44.8088C89.3643 44.8056 90.5048 44.4796 91.4949 43.8671C92.485 43.2546 93.2859 42.3795 93.8085 41.3392L96.6123 42.7522ZM112.927 44.6801V47.893H99.0344V28.4882H102.221V44.6793L112.927 44.6801Z" fill="#5C1FB1"/>
<path d="M115.731 28.4881V35.9415C115.731 38.1262 114.457 41.3391 110.76 41.3391C107.064 41.3391 105.789 38.1262 105.789 35.9415V28.4881H108.976V35.9415C108.976 35.9415 108.976 36.5837 109.231 37.2266C109.485 37.8694 109.996 38.1262 110.633 38.1262C111.398 38.1262 111.78 37.8694 112.035 37.2266C112.29 36.5837 112.29 35.9415 112.29 35.9415V28.4881H115.731ZM130.006 42.4954C130.006 43.9084 129.496 45.1942 128.604 46.0938C127.457 47.1221 125.8 47.7642 123.888 47.7642H118.153V28.4881H122.486C124.398 28.4881 126.055 29.1302 127.202 30.2873C128.221 31.3156 128.859 32.7286 128.732 34.3991C128.732 35.9415 128.349 37.2266 127.457 38.2549L128.604 39.0257C129.624 39.9253 130.006 41.2104 130.006 42.4954ZM121.339 31.829V37.0978H122.741C123.633 37.0978 124.398 36.8411 124.908 36.327C125.418 35.9415 125.545 35.2987 125.545 34.3991C125.545 33.6282 125.29 32.9861 124.908 32.5999C124.398 32.0865 123.506 31.829 122.486 31.829H121.339ZM126.819 42.4954C126.819 41.9812 126.692 41.5958 126.437 41.3391C125.927 40.8249 124.781 40.4395 123.633 40.4395H121.339V44.4233H123.76C124.908 44.4233 125.8 44.1659 126.31 43.6517C126.692 43.5237 126.819 43.0095 126.819 42.4954ZM144.664 43.0095C144.154 45.4509 141.86 47.8922 137.908 47.8922C136.252 47.8922 134.595 47.2501 133.447 46.0938C132.555 45.3229 131.918 44.1659 131.663 43.1383C132.683 42.7521 133.575 42.3667 134.595 41.9812C134.595 42.11 134.595 42.11 134.722 42.2387V42.4954C134.722 42.6241 134.85 42.6241 134.85 42.7521C135.36 43.9091 136.634 44.5513 137.781 44.5513C140.203 44.5513 141.095 43.1383 141.223 42.3667C141.35 41.7245 141.477 40.31 138.546 39.6679L136.252 39.1545C133.193 38.5116 131.536 36.7132 131.536 34.0136C131.536 30.544 134.722 28.4874 137.781 28.4874C140.84 28.4874 143.261 30.2873 143.899 32.8573C142.88 33.3715 141.988 33.7569 140.967 34.2703C140.967 33.8857 140.84 33.6282 140.713 33.3715C140.713 33.2428 140.585 33.2428 140.585 33.114C140.075 32.0857 138.928 31.829 137.908 31.829C136.506 31.829 134.977 32.7286 134.977 34.1424C134.977 34.6565 134.977 35.5554 137.144 36.0695L139.565 36.5837C143.261 37.3553 145.174 39.7966 144.664 43.0095ZM144.919 21.8048C144.409 24.2468 142.115 26.6889 138.164 26.6889C136.506 26.6889 134.85 26.046 133.703 24.8897C132.81 24.1189 132.173 22.9618 131.918 21.9342C132.938 21.5481 133.83 21.1626 134.85 20.7772C134.85 20.9059 134.85 20.9059 134.977 21.0347V21.2914C134.977 21.4201 135.104 21.4201 135.104 21.5481C135.614 22.7051 136.889 23.3473 138.036 23.3473C140.458 23.3473 141.35 21.9342 141.478 21.1626C141.605 20.5205 141.732 19.1067 138.801 18.4639L136.506 17.9504C133.447 17.3076 131.791 15.5091 131.791 12.8096C131.791 9.33996 134.977 7.28333 138.036 7.28333C141.095 7.28333 143.517 9.08325 144.154 11.6533C143.134 12.1675 142.242 12.5529 141.223 13.0663C141.223 12.6816 141.095 12.4242 140.967 12.1675C140.967 12.0387 140.84 12.0387 140.84 11.91C140.33 10.8817 139.183 10.625 138.164 10.625C136.762 10.625 135.232 11.5246 135.232 12.9383C135.232 13.4525 135.232 14.3513 137.399 14.8662L139.821 15.3797C143.517 16.2792 145.428 18.5926 144.919 21.8055V21.8048ZM14.0073 19.6209C14.0073 22.0622 15.9352 23.9901 18.3765 23.9901C20.6898 23.9901 22.7465 21.9335 22.7465 19.4922C22.7465 18.7213 22.6177 18.0792 22.2323 17.4355L19.4048 20.263C19.1481 20.5205 18.7619 20.6485 18.5052 20.6485C18.1198 20.6485 17.8623 20.5205 17.6056 20.2638C17.0915 19.8776 17.0915 19.1067 17.6056 18.5926L20.4331 15.7658C19.919 15.5084 19.1481 15.2517 18.3765 15.2517C15.9352 15.2517 14.0073 17.1788 14.0073 19.6209ZM38.0388 23.7334C38.3099 23.737 38.5789 23.6863 38.83 23.5842C39.0812 23.4821 39.3093 23.3307 39.501 23.139C39.6927 22.9473 39.8441 22.7192 39.9462 22.4681C40.0482 22.2169 40.099 21.9479 40.0954 21.6768V17.4363C40.099 17.1652 40.0482 16.8962 39.9462 16.645C39.8441 16.3939 39.6927 16.1657 39.501 15.974C39.3093 15.7824 39.0812 15.631 38.83 15.5289C38.5789 15.4268 38.3099 15.3761 38.0388 15.3797H33.7975C33.5265 15.3762 33.2576 15.427 33.0065 15.5291C32.7555 15.6313 32.5274 15.7826 32.3358 15.9743C32.1442 16.166 31.9929 16.3941 31.8908 16.6452C31.7888 16.8963 31.7381 17.1653 31.7416 17.4363V21.6768C31.7381 21.9479 31.7888 22.2169 31.8909 22.4681C31.993 22.7192 32.1443 22.9473 32.336 23.139C32.5277 23.3307 32.7559 23.4821 33.007 23.5842C33.2582 23.6863 33.5272 23.737 33.7983 23.7334H38.0388ZM35.8542 41.7245C33.4128 41.7245 31.3562 39.6679 31.3562 37.2266C31.3562 34.7852 33.4128 32.7286 35.8542 32.7286C38.2955 32.7286 40.3521 34.7852 40.3521 37.2266C40.3521 39.6679 38.2955 41.7245 35.8542 41.7245ZM15.5497 33.114C15.61 32.9962 15.7021 32.8977 15.8157 32.8297C15.9292 32.7616 16.0596 32.7269 16.1919 32.7293H20.4331C20.6898 32.7293 20.9465 32.8573 21.0753 33.114L23.1319 36.8411C23.2599 37.0978 23.2599 37.3553 23.1319 37.612L21.0753 41.3391C21.015 41.4569 20.9229 41.5555 20.8093 41.6235C20.6958 41.6915 20.5654 41.7262 20.4331 41.7238H16.1919C16.0596 41.7262 15.9292 41.6915 15.8157 41.6235C15.7021 41.5555 15.61 41.4569 15.5497 41.3391L13.4931 37.612C13.4298 37.4934 13.3967 37.361 13.3967 37.2266C13.3967 37.0921 13.4298 36.9598 13.4931 36.8411L15.5497 33.114Z" fill="#5C1FB1"/>
<path fill-rule="evenodd" clip-rule="evenodd" d="M54.7449 28.3594C54.7449 43.4764 42.4894 55.7318 27.3724 55.7318C12.2555 55.7318 0 43.4764 0 28.3594C0 13.2424 12.2555 0.986938 27.3724 0.986938C42.4894 0.986938 54.7449 13.2424 54.7449 28.3594ZM23.7741 12.5529C24.1595 12.0387 24.9304 12.0387 25.4445 12.5529C25.8307 13.0671 25.8307 13.8379 25.5733 14.2234L24.0315 15.7658C24.8024 16.9221 25.1878 18.2072 25.1878 19.6202C25.1878 23.3473 22.1029 26.4315 18.3765 26.4315C14.6502 26.4315 11.566 23.3473 11.566 19.6209C11.566 15.8938 14.6502 12.8096 18.3765 12.8096C19.7903 12.8096 21.0753 13.3238 22.2323 14.0946L23.7741 12.5529ZM33.6696 12.8096H37.9101C38.5184 12.8071 39.1212 12.925 39.6837 13.1566C40.2461 13.3882 40.7572 13.7289 41.1873 14.1591C41.6175 14.5892 41.9582 15.1003 42.1898 15.6627C42.4214 16.2252 42.5393 16.828 42.5368 17.4363V21.6768C42.5393 22.2851 42.4214 22.8879 42.1898 23.4504C41.9582 24.0129 41.6175 24.5239 41.1873 24.954C40.7572 25.3842 40.2461 25.7249 39.6837 25.9565C39.1212 26.1881 38.5184 26.306 37.9101 26.3035H33.6696C33.0613 26.306 32.4585 26.1881 31.896 25.9565C31.3335 25.7249 30.8225 25.3842 30.3924 24.954C29.9622 24.5239 29.6215 24.0129 29.3899 23.4504C29.1583 22.8879 29.0404 22.2851 29.0429 21.6768V17.4363C29.0404 16.828 29.1583 16.2252 29.3899 15.6627C29.6215 15.1003 29.9622 14.5892 30.3924 14.1591C30.8225 13.7289 31.3335 13.3882 31.896 13.1566C32.4585 12.925 33.0613 12.8071 33.6696 12.8096ZM44.464 36.0695H42.6648C42.1514 32.7286 39.1951 30.1586 35.7255 30.1586C34.8131 30.1548 33.9091 30.3316 33.0654 30.679C32.2218 31.0264 31.4553 31.5374 30.8102 32.1825C30.165 32.8277 29.654 33.5942 29.3066 34.4378C28.9593 35.2814 28.7824 36.1855 28.7862 37.0979C28.7862 40.9537 31.8704 44.1659 35.7255 44.1659C39.1951 44.1659 42.0226 41.7245 42.6648 38.3829H44.464C45.1068 38.3829 45.621 37.8687 45.621 37.2266C45.621 36.5837 45.1068 36.0695 44.464 36.0695ZM16.1919 43.9099H20.4332C21.5895 43.9099 22.6178 43.3957 23.2599 42.3674L25.3166 38.6411C25.57 38.1435 25.7022 37.593 25.7022 37.0346C25.7022 36.4762 25.57 35.9257 25.3166 35.4281L23.2599 31.701C22.6178 30.8022 21.5895 30.1593 20.4332 30.1593H16.1919C15.0356 30.1593 13.8786 30.6735 13.3652 31.701L11.3085 35.4281C11.0551 35.9257 10.9229 36.4762 10.9229 37.0346C10.9229 37.593 11.0551 38.1435 11.3085 38.6411L13.3652 42.3674C14.0073 43.267 15.0356 43.9099 16.1919 43.9099Z" fill="#5C1FB1"/>
</g>
<defs>
<clipPath id="clip0_5_363">
<rect width="145" height="55" fill="white" transform="translate(0 0.859375)"/>
</clipPath>
</defs>
</svg>
