<svg width="90" height="97" viewBox="0 0 90 97" fill="none" xmlns="http://www.w3.org/2000/svg">
<circle cx="31" cy="35" r="8" fill="white"/>
<path d="M32.6508 34.0781C32.6011 33.9053 32.5313 33.7526 32.4413 33.62C32.3514 33.4851 32.2413 33.3714 32.1111 33.2791C31.9832 33.1844 31.8364 33.1122 31.6707 33.0625C31.5074 33.0128 31.3263 32.9879 31.1274 32.9879C30.7557 32.9879 30.429 33.0803 30.1473 33.2649C29.8679 33.4496 29.6501 33.7183 29.4939 34.071C29.3376 34.4214 29.2595 34.8499 29.2595 35.3565C29.2595 35.8632 29.3364 36.294 29.4903 36.6491C29.6442 37.0043 29.862 37.2753 30.1437 37.4624C30.4255 37.647 30.7581 37.7393 31.1416 37.7393C31.4896 37.7393 31.7867 37.6778 32.0329 37.5547C32.2815 37.4292 32.4709 37.2528 32.6011 37.0256C32.7337 36.7983 32.8 36.5296 32.8 36.2195L33.1125 36.2656H31.2375V35.108H34.2808V36.0241C34.2808 36.6634 34.1459 37.2126 33.876 37.6719C33.6061 38.1288 33.2344 38.4815 32.7609 38.7301C32.2874 38.9763 31.7453 39.0994 31.1345 39.0994C30.4527 39.0994 29.8537 38.9491 29.3376 38.6484C28.8215 38.3454 28.4191 37.9157 28.1302 37.3594C27.8438 36.8007 27.7006 36.1378 27.7006 35.3707C27.7006 34.7812 27.7858 34.2557 27.9562 33.794C28.1291 33.33 28.3705 32.937 28.6807 32.6151C28.9908 32.2931 29.3518 32.0481 29.7638 31.88C30.1757 31.7119 30.622 31.6278 31.1025 31.6278C31.5145 31.6278 31.898 31.6882 32.2531 31.8089C32.6082 31.9273 32.9231 32.0954 33.1977 32.3132C33.4747 32.531 33.7008 32.7902 33.876 33.0909C34.0512 33.3892 34.1636 33.7183 34.2133 34.0781H32.6508Z" fill="#491B89"/>
<circle cx="58" cy="32" r="8" fill="white"/>
<circle cx="31" cy="61" r="8" fill="white"/>
<path fill-rule="evenodd" clip-rule="evenodd" d="M90 48C90 72.8522 69.8522 93 45 93C20.1478 93 0 72.8522 0 48C0 23.1478 20.1478 3 45 3C69.8522 3 90 23.1478 90 48ZM39.0843 22.0143C39.718 21.1691 40.9853 21.1691 41.8305 22.0143C42.4654 22.8596 42.4654 24.1269 42.0422 24.7605L39.5076 27.2964C40.7749 29.1973 41.4085 31.3099 41.4085 33.6328C41.4085 39.7601 36.3369 44.8305 30.2108 44.8305C24.0847 44.8305 19.0143 39.7601 19.0143 33.6341C19.0143 27.5068 24.0847 22.4364 30.2108 22.4364C32.535 22.4364 34.6476 23.2816 36.5497 24.5489L39.0843 22.0143ZM55.3524 22.4364H62.3238C63.3238 22.4322 64.3148 22.6261 65.2395 23.0068C66.1642 23.3876 67.0044 23.9477 67.7115 24.6548C68.4187 25.362 68.9788 26.2021 69.3595 27.1269C69.7403 28.0516 69.9342 29.0425 69.93 30.0426V37.0139C69.9342 38.014 69.7403 39.0049 69.3595 39.9296C68.9788 40.8544 68.4187 41.6945 67.7115 42.4017C67.0044 43.1088 66.1642 43.6689 65.2395 44.0497C64.3148 44.4304 63.3238 44.6243 62.3238 44.6201H55.3524C54.3524 44.6243 53.3614 44.4304 52.4367 44.0497C51.512 43.6689 50.6718 43.1088 49.9647 42.4017C49.2576 41.6945 48.6975 40.8544 48.3167 39.9296C47.9359 39.0049 47.742 38.014 47.7462 37.0139V30.0426C47.742 29.0425 47.9359 28.0516 48.3167 27.1269C48.6975 26.2021 49.2576 25.362 49.9647 24.6548C50.6718 23.9477 51.512 23.3876 52.4367 23.0068C53.3614 22.6261 54.3524 22.4322 55.3524 22.4364ZM73.0982 60.6754H70.1404C69.2964 55.183 64.4364 50.9578 58.7323 50.9578C57.2324 50.9516 55.7461 51.2424 54.3592 51.8134C52.9723 52.3845 51.7122 53.2246 50.6516 54.2852C49.591 55.3458 48.7509 56.6059 48.1798 57.9928C47.6087 59.3798 47.3179 60.8661 47.3242 62.3659C47.3242 68.7049 52.3946 73.9857 58.7323 73.9857C64.4364 73.9857 69.0847 69.9722 70.1404 64.4785H73.0982C74.1551 64.4785 75.0004 63.6332 75.0004 62.5776C75.0004 61.5207 74.1551 60.6754 73.0982 60.6754ZM26.6193 73.5649H33.5919C35.4928 73.5649 37.1834 72.7196 38.2391 71.0291L41.6201 64.903C42.0368 64.085 42.2541 63.18 42.2541 62.262C42.2541 61.3439 42.0368 60.4389 41.6201 59.6209L38.2391 53.4936C37.1834 52.0159 35.4928 50.9591 33.5919 50.9591H26.6193C24.7184 50.9591 22.8162 51.8043 21.9722 53.4936L18.5911 59.6209C18.1744 60.4389 17.9572 61.3439 17.9572 62.262C17.9572 63.18 18.1744 64.085 18.5911 64.903L21.9722 71.0291C23.0278 72.508 24.7184 73.5649 26.6193 73.5649Z" fill="white"/>
<path d="M28.0907 63.7216V62.5107L31.127 57.7273H32.171V59.4034H31.5531L29.639 62.4325V62.4893H33.9537V63.7216H28.0907ZM31.5815 65V63.3523L31.6099 62.8161V57.7273H33.0517V65H31.5815Z" fill="#6626BF"/>
<circle cx="60" cy="64" r="8" fill="white"/>
<path d="M60.6508 62.0781C60.6011 61.9053 60.5313 61.7526 60.4413 61.62C60.3514 61.4851 60.2413 61.3714 60.1111 61.2791C59.9832 61.1844 59.8364 61.1122 59.6707 61.0625C59.5074 61.0128 59.3263 60.9879 59.1274 60.9879C58.7557 60.9879 58.429 61.0803 58.1473 61.2649C57.8679 61.4496 57.6501 61.7183 57.4939 62.071C57.3376 62.4214 57.2595 62.8499 57.2595 63.3565C57.2595 63.8632 57.3364 64.294 57.4903 64.6491C57.6442 65.0043 57.862 65.2753 58.1437 65.4624C58.4255 65.647 58.7581 65.7393 59.1416 65.7393C59.4896 65.7393 59.7867 65.6778 60.0329 65.5547C60.2815 65.4292 60.4709 65.2528 60.6011 65.0256C60.7337 64.7983 60.8 64.5296 60.8 64.2195L61.1125 64.2656H59.2375V63.108H62.2808V64.0241C62.2808 64.6634 62.1459 65.2126 61.876 65.6719C61.6061 66.1288 61.2344 66.4815 60.7609 66.7301C60.2874 66.9763 59.7453 67.0994 59.1345 67.0994C58.4527 67.0994 57.8537 66.9491 57.3376 66.6484C56.8215 66.3454 56.4191 65.9157 56.1302 65.3594C55.8438 64.8007 55.7006 64.1378 55.7006 63.3707C55.7006 62.7812 55.7858 62.2557 55.9562 61.794C56.1291 61.33 56.3705 60.937 56.6807 60.6151C56.9908 60.2931 57.3518 60.0481 57.7638 59.88C58.1757 59.7119 58.622 59.6278 59.1025 59.6278C59.5145 59.6278 59.898 59.6882 60.2531 59.8089C60.6082 59.9273 60.9231 60.0954 61.1977 60.3132C61.4747 60.531 61.7008 60.7902 61.876 61.0909C62.0512 61.3892 62.1636 61.7183 62.2133 62.0781H60.6508Z" fill="#491B89"/>
<path d="M55.5907 34.7216V33.5107L58.627 28.7273H59.671V30.4034H59.0531L57.139 33.4325V33.4893H61.4537V34.7216H55.5907ZM59.0815 36V34.3523L59.1099 33.8161V28.7273H60.5517V36H59.0815Z" fill="#491B89"/>
</svg>
