<svg width="43" height="42" viewBox="0 0 43 42" fill="none" xmlns="http://www.w3.org/2000/svg">
<path d="M4.3 8.4H0V37.8C0 38.9139 0.453034 39.9822 1.25944 40.7698C2.06585 41.5575 3.15957 42 4.3 42H34.4V37.8H4.3V8.4ZM38.7 0C39.8404 0 40.9342 0.442499 41.7406 1.23015C42.547 2.0178 43 3.08609 43 4.2V29.4C43 30.5139 42.547 31.5822 41.7406 32.3698C40.9342 33.1575 39.8404 33.6 38.7 33.6H12.9C11.7596 33.6 10.6658 33.1575 9.85944 32.3698C9.05303 31.5822 8.6 30.5139 8.6 29.4V4.2C8.6 3.08609 9.05303 2.0178 9.85944 1.23015C10.6658 0.442499 11.7596 0 12.9 0H38.7ZM32.25 10.5C32.25 8.82914 31.5705 7.22671 30.3608 6.04523C29.1512 4.86375 27.5106 4.2 25.8 4.2C24.0894 4.2 22.4488 4.86375 21.2392 6.04523C20.0296 7.22671 19.35 8.82914 19.35 10.5C19.35 12.1709 20.0296 13.7733 21.2392 14.9548C22.4488 16.1363 24.0894 16.8 25.8 16.8C27.5106 16.8 29.1512 16.1363 30.3608 14.9548C31.5705 13.7733 32.25 12.1709 32.25 10.5ZM12.9 27.3V29.4H38.7V27.3C38.7 23.1 30.1 20.79 25.8 20.79C21.5 20.79 12.9 23.1 12.9 27.3Z" fill="white"/>
</svg>
